<?xml version="1.0" encoding="utf-8"?>
<!-- Generator: Adobe Illustrator 23.0.1, SVG Export Plug-In . SVG Version: 6.00 Build 0)  -->
<svg version="1.1" id="Layer_1" xmlns="http://www.w3.org/2000/svg" xmlns:xlink="http://www.w3.org/1999/xlink" x="0px" y="0px"
	 viewBox="0 0 109 27" style="enable-background:new 0 0 109 27;" xml:space="preserve">
<style type="text/css">
	.st0{fill:#4ABB3F;}
	.st1{fill:#31302F;}
</style>
<g>
	<path class="st0" d="M27,15h-3v-3h3V15z M27,9h-3V6h3V9z M27,3h-3V0h3V3z M21,3h-3V0h3V3z M0,8.33C0,3.73,3.73,0,8.33,0H15v3H8.33
		C5.58,3,3,5.52,3,8.27V21H0L0,8.33z"/>
	<path class="st0" d="M24,21h3v-3h-3V21z"/>
	<path class="st0" d="M24,27h3v-3h-3V27z"/>
	<path class="st0" d="M18,27h3v-3h-3V27z"/>
	<path class="st0" d="M12,27h3v-3h-3V27z"/>
	<path class="st0" d="M6,27h3v-3H6V27z"/>
	<path class="st0" d="M0,27h3v-3H0V27z"/>
</g>
<path class="st1" d="M44.9,9.68c-0.25-0.07-0.62-0.12-1-0.12c-1,0-2.58,0.4-3.23,1.8V9.68H37V22.1h3.8v-5.43
	c0-2.47,1.38-3.37,2.9-3.37c0.38,0,0.77,0.02,1.2,0.12V9.68z"/>
<path class="st1" d="M48.93,14.4c0.07-0.92,0.88-2.1,2.47-2.1c1.8,0,2.45,1.15,2.5,2.1H48.93z M54.18,17.62
	c-0.35,0.98-1.12,1.62-2.5,1.62c-1.48,0-2.75-1-2.83-2.4h8.65c0.03-0.08,0.08-0.65,0.08-1.18c0-4-2.38-6.38-6.22-6.38
	c-3.23,0-6.2,2.55-6.2,6.55c0,4.17,3.05,6.62,6.47,6.62c3.15,0,5.12-1.8,5.73-3.95L54.18,17.62z"/>
<path class="st1" d="M62.13,14.98c0-1.25,0.8-2.18,2.05-2.18c1.38,0,2.03,0.93,2.03,2.15v7.15H70v-7.8c0-2.73-1.4-4.95-4.53-4.95
	c-1.28,0-2.8,0.57-3.47,1.75V9.68h-3.67V22.1h3.8V14.98z"/>
<path class="st1" d="M83.79,4h-3.75v6.65c-0.3-0.47-1.22-1.27-3.35-1.27c-3.53,0-6.03,2.77-6.03,6.48c0,3.82,2.65,6.52,6.15,6.52
	c1.5,0,2.75-0.62,3.33-1.48c0,0.5,0.07,1.05,0.1,1.2h3.65c-0.03-0.27-0.1-1.1-0.1-2.23V4z M74.49,15.88c0-2.07,1.32-3.07,2.8-3.07
	c1.48,0,2.8,1,2.8,3.07c0,2.05-1.32,3.1-2.8,3.1C75.82,18.98,74.49,17.92,74.49,15.88z"/>
<path class="st1" d="M88.16,14.02c0.08-0.92,0.88-2.1,2.47-2.1c1.8,0,2.45,1.15,2.5,2.1H88.16z M93.41,17.25
	c-0.35,0.98-1.12,1.62-2.5,1.62c-1.47,0-2.75-1-2.82-2.4h8.65c0.02-0.08,0.07-0.65,0.07-1.18c0-4-2.38-6.38-6.22-6.38
	c-3.22,0-6.2,2.55-6.2,6.55c0,4.17,3.05,6.62,6.48,6.62c3.15,0,5.12-1.8,5.72-3.95L93.41,17.25z"/>
<path class="st1" d="M105.39,9.68c-0.25-0.07-0.62-0.12-1-0.12c-1,0-2.57,0.4-3.22,1.8V9.68h-3.67V22.1h3.8v-5.43
	c0-2.47,1.38-3.37,2.9-3.37c0.38,0,0.77,0.02,1.2,0.12V9.68z"/>
</svg>
