<?xml version="1.0" encoding="utf-8"?>
<!-- Generator: Adobe Illustrator 23.0.4, SVG Export Plug-In . SVG Version: 6.00 Build 0)  -->
<svg version="1.1" id="Layer_1" xmlns="http://www.w3.org/2000/svg" xmlns:xlink="http://www.w3.org/1999/xlink" x="0px" y="0px"
	 viewBox="0 0 1028.5 752.5" style="enable-background:new 0 0 1028.5 752.5;" opacity="0.3" xml:space="preserve">
<style type="text/css">
	.st0{opacity:0.5;fill:#DEE3F3;enable-background:new    ;}
	.st1{opacity:0.45;}
	.st2{fill:#347DBE;}
	.st3{opacity:0.1;enable-background:new    ;}
	.st4{opacity:0.5;fill:#347DBE;enable-background:new    ;}
	.st5{opacity:0.3;enable-background:new    ;}
	.st6{fill:none;stroke:#FC6681;stroke-width:2;stroke-miterlimit:10;}
	.st7{fill:#FC6681;}
	.st8{fill:none;stroke:#FFD037;stroke-width:2;stroke-miterlimit:10;}
	.st9{fill:#FFD037;}
	.st10{fill:#A8A8A8;}
	.st11{opacity:0.2;enable-background:new    ;}
</style>
<ellipse class="st0" cx="512.3" cy="706.4" rx="256" ry="43"/>
<g class="st1">
	<path class="st2" d="M450.8,259c0,0.5,0,1,0.1,1.4C450.8,259.9,450.8,259.4,450.8,259z M579.7,228.1c0,0.1,0,0.3,0.1,0.4
		C579.7,228.3,579.7,228.2,579.7,228.1z M456.7,268.8c-0.9-0.4-1.7-1-2.4-1.7C455.1,267.8,455.9,268.3,456.7,268.8z M454.3,267
		c-0.3-0.3-0.7-0.6-0.9-1C453.6,266.4,453.9,266.7,454.3,267z M644.5,478.4c-0.1-0.4-0.3-0.9-0.5-1.3
		C644.2,477.6,644.4,478,644.5,478.4L644.5,478.4z M639,471.8c0.4,0.2,0.9,0.5,1.3,0.8C639.9,472.3,639.4,472,639,471.8z
		 M641.5,473.5c0.7,0.6,1.3,1.4,1.8,2.1C642.8,474.9,642.2,474.2,641.5,473.5z M640.3,472.6c0.4,0.3,0.7,0.5,1,0.9
		C641,473.1,640.7,472.8,640.3,472.6z M643.9,477c-0.2-0.4-0.4-0.7-0.6-1C643.6,476.2,643.8,476.6,643.9,477z M644.8,479.8
		c-0.1-0.4-0.1-0.7-0.2-1.1C644.7,479.1,644.8,479.4,644.8,479.8L644.8,479.8z"/>
	<path class="st2" d="M645,481.6c0-0.5,0-0.9-0.1-1.4C644.9,480.6,645,481.1,645,481.6z M450.9,260.6c0.1,0.4,0.2,0.9,0.3,1.3
		C451.1,261.5,451,261.1,450.9,260.6z M327,325.9c-0.2-0.2-0.3-0.4-0.5-0.6c-0.2-0.3-0.3-0.6-0.3-0.9c0,0.8,0,1.5,0,2.3
		c0.3,1.1,0.5,2.2,0.5,3.3c0-1.1,0.2-2.2,0.5-3.2c-0.1-0.3-0.2-0.5-0.2-0.8C327,326,327,326,327,325.9z"/>
	<path class="st2" d="M454.4,221.6l0.2-0.1L454.4,221.6z M453.7,222.3c-0.1,0.1-0.1,0.1-0.2,0.2
		C453.6,222.4,453.6,222.3,453.7,222.3L453.7,222.3z M452.7,223.4c0,0,0.1-0.1,0.1-0.1L452.7,223.4z M451.2,262.2
		c0.1,0.4,0.3,0.9,0.5,1.3C451.5,263,451.4,262.6,451.2,262.2z M452.4,264.8c0.2,0.4,0.5,0.8,0.8,1.1
		C452.9,265.6,452.7,265.2,452.4,264.8z M451.8,263.5c0.2,0.4,0.4,0.8,0.7,1.2C452.2,264.4,452,264,451.8,263.5z M451.4,226
		c0-0.1,0.1-0.2,0.1-0.3C451.5,225.7,451.5,225.9,451.4,226L451.4,226z M450.8,228.5c0-0.1,0-0.3,0.1-0.4
		C450.9,228.2,450.9,228.3,450.8,228.5z M452.1,224.6C452.1,224.6,452.1,224.5,452.1,224.6C452.1,224.5,452.1,224.6,452.1,224.6
		L452.1,224.6z"/>
	<path class="st3" d="M738.9,169.8H627.5c-4.9,0-8.8-4-8.8-8.8v-33.7c0-4.9,4-8.8,8.8-8.8h111.4c4.9,0,8.8,4,8.8,8.8V161
		C747.7,165.8,743.8,169.8,738.9,169.8z"/>
	<path class="st3" d="M910.5,219.9H799.2c-4.9,0-8.8-4-8.8-8.8v-33.7c0-4.9,4-8.8,8.8-8.8h111.4c4.9,0,8.8,4,8.8,8.8v33.7
		C919.4,216,915.4,219.9,910.5,219.9z"/>
	<path class="st3" d="M700,270H588.7c-4.9,0-8.8-4-8.8-8.8v-33.7c0-4.9,4-8.8,8.8-8.8H700c4.9,0,8.8,4,8.8,8.8v33.7
		C708.9,266.1,704.9,270,700,270z"/>
	<path class="st3" d="M910.5,321.4H799.2c-4.9,0-8.8-4-8.8-8.8v-33.7c0-4.9,4-8.8,8.8-8.8h111.4c4.9,0,8.8,4,8.8,8.8v33.7
		C919.4,317.5,915.4,321.4,910.5,321.4z"/>
	<path class="st3" d="M910.5,421.6H799.2c-4.9,0-8.8-4-8.8-8.8v-33.7c0-4.9,4-8.8,8.8-8.8h111.4c4.9,0,8.8,4,8.8,8.8v33.7
		C919.4,417.7,915.4,421.6,910.5,421.6z"/>
	<path class="st3" d="M852.4,420.4H739.5c-3.6,0-6.7,2.4-7.7,5.8c0,0.5,0,0.9-0.1,1.4c-0.1,0.3-0.1,0.5-0.2,0.8c0,0,0,0.1,0,0.1
		v35.2c0,4.5,3.6,8.1,8.1,8.1h112.9c4.5,0,8.1-3.6,8.1-8.1v-35.2C860.5,424,856.9,420.4,852.4,420.4L852.4,420.4z"/>
	<path class="st3" d="M765.2,521.9H653.8c-4.9,0-8.8-4-8.8-8.8v-33.7c0-4.9,4-8.8,8.8-8.8h111.4c4.9,0,8.8,4,8.8,8.8V513
		C774,517.9,770.1,521.9,765.2,521.9z"/>
	<path class="st3" d="M394.3,219.9H282.9c-4.9,0-8.8-4-8.8-8.8v-33.7c0-4.9,4-8.8,8.8-8.8h111.4c4.9,0,8.8,4,8.8,8.8v33.7
		C403.2,216,399.2,219.9,394.3,219.9z"/>
	<path class="st3" d="M314.1,270H202.8c-4.9,0-8.8-4-8.8-8.8v-33.7c0-4.9,4-8.8,8.8-8.8h111.4c4.9,0,8.8,4,8.8,8.8v33.7
		C323,266.1,319,270,314.1,270z"/>
	<path class="st3" d="M265.3,321.4H153.9c-4.9,0-8.8-4-8.8-8.8v-33.7c0-4.9,4-8.8,8.8-8.8h111.4c4.9,0,8.8,4,8.8,8.8v33.7
		C274.1,317.5,270.1,321.4,265.3,321.4z"/>
	<path class="st3" d="M317.9,371.5H206.5c-4.9,0-8.8-4-8.8-8.8V329c0-4.9,4-8.8,8.8-8.8h111.4c4.9,0,8.8,4,8.8,8.8v33.7
		C326.7,367.6,322.8,371.5,317.9,371.5z"/>
	<path class="st3" d="M265.3,421.6H153.9c-4.9,0-8.8-4-8.8-8.8v-33.7c0-4.9,4-8.8,8.8-8.8h111.4c4.9,0,8.8,4,8.8,8.8v33.7
		C274.1,417.7,270.1,421.6,265.3,421.6z"/>
	<path class="st3" d="M336.7,471.8H225.3c-4.9,0-8.8-4-8.8-8.8v-33.7c0-4.9,4-8.8,8.8-8.8h111.4c4.9,0,8.8,4,8.8,8.8v33.7
		C345.5,467.8,341.6,471.8,336.7,471.8z"/>
	<path class="st3" d="M249,521.9H137.6c-4.9,0-8.8-4-8.8-8.8v-33.7c0-4.9,4-8.8,8.8-8.8H249c4.9,0,8.8,4,8.8,8.8V513
		C257.8,517.9,253.9,521.9,249,521.9z"/>
</g>
<circle class="st4" cx="810.3" cy="28.9" r="28.9"/>
<path class="st0" d="M251.9,81.4h-6.9c2.7,0,4.8-2.1,4.9-4.7c0-2.7-2.1-4.8-4.7-4.9c0,0-0.1,0-0.1,0h-55.7c-2.7,0-4.8,2.1-4.9,4.7
	c0,2.7,2.1,4.8,4.7,4.9c0,0,0.1,0,0.1,0h6.9c-2.7,0-4.8,2.1-4.9,4.7c0,2.7,2.1,4.8,4.7,4.9c0,0,0.1,0,0.1,0h-9.6
	c-2.7,0-4.8,2.2-4.7,4.9c0,2.6,2.1,4.7,4.7,4.7h55.7c2.7,0,4.8-2.2,4.7-4.9c0-2.6-2.1-4.7-4.7-4.7h9.6c2.7,0,4.8-2.2,4.7-4.9
	C256.6,83.5,254.5,81.4,251.9,81.4L251.9,81.4z M806.7,25.4h-5.2c2,0,3.6-1.7,3.6-3.7c0-2-1.6-3.6-3.6-3.6H759c-2,0-3.6,1.7-3.6,3.7
	c0,2,1.6,3.6,3.6,3.6h5.2c-2,0-3.7,1.6-3.7,3.6c0,2,1.6,3.7,3.6,3.7c0,0,0.1,0,0.1,0h-7.3c-2,0-3.7,1.6-3.7,3.7s1.6,3.7,3.7,3.7
	h42.4c2,0,3.7-1.6,3.7-3.7s-1.6-3.7-3.7-3.7h7.3c2,0,3.7-1.6,3.7-3.6s-1.6-3.7-3.6-3.7C806.8,25.4,806.7,25.4,806.7,25.4z
	 M383.9,13.4h-6.9c2.7,0,4.8-2.1,4.9-4.7c0-2.7-2.1-4.8-4.7-4.9c0,0-0.1,0-0.1,0h-55.7c-2.7,0-4.8,2.1-4.9,4.7
	c0,2.7,2.1,4.8,4.7,4.9c0,0,0.1,0,0.1,0h6.9c-2.7,0-4.8,2.1-4.9,4.7c0,2.7,2.1,4.8,4.7,4.9c0,0,0.1,0,0.1,0h-9.6
	c-2.7,0-4.8,2.2-4.7,4.9c0,2.6,2.1,4.7,4.7,4.7h55.7c2.7,0,4.8-2.2,4.7-4.9c0-2.6-2.1-4.7-4.7-4.7h9.6c2.7,0,4.8-2.2,4.7-4.9
	C388.6,15.5,386.5,13.4,383.9,13.4L383.9,13.4z"/>
<path class="st2" d="M390.9,264.7h206.1c7.2,0,13,5.8,13,13v81.7c0,7.2-5.8,13-13,13H390.9c-7.2,0-13-5.8-13-13v-81.7
	C377.9,270.5,383.7,264.7,390.9,264.7z"/>
<path class="st3" d="M396.4,355.8h195v2h-195V355.8z"/>
<path class="st5" d="M396.4,281.6h195v74h-195V281.6z"/>
<circle class="st3" cx="441.8" cy="320.1" r="26.9"/>
<circle class="st3" cx="546" cy="320.1" r="26.9"/>
<path class="st2" d="M473.7,372.3h40.3v23.5h-40.3V372.3z"/>
<path class="st2" d="M409.8,389.2H578v134.5H409.8V389.2z"/>
<path class="st2" d="M406.5,550.5h174.8v16.8H406.5V550.5z"/>
<path class="st2" d="M435.1,607.7v20.2v30.3V675V685h30.3V675v-16.8v-30.3v-20.2v-23.5h-30.3V607.7z"/>
<path class="st2" d="M525.9,584.2v23.5v20.2v30.3V675V685h30.3V675v-16.8v-30.3v-20.2v-23.5H525.9z"/>
<path class="st2" d="M386.9,419.4v31.1c-8.3,1.5-16,5.2-22.4,10.8c-5.9,5.4-10.4,12.1-13.3,19.5c-3.9,9.4-5.8,19.9-6.6,29.8
	c-1,13.3-0.3,26.8,1.9,40H313c-1.4-18.6-1-34.5,0.9-48.2c2.1-15.4,5.9-28,10.8-38.2c9.7-20.4,23.6-31.5,35.8-37.5
	C374.9,419.4,386.9,419.4,386.9,419.4z"/>
<path class="st5" d="M435.1,584.2h30.3v23.5h-30.3V584.2z"/>
<path class="st5" d="M435.1,627.9h30.3v30.3h-30.3V627.9z"/>
<path class="st5" d="M435.1,675h30.3V685h-30.3V675z"/>
<path class="st5" d="M525.9,584.2h30.3v23.5h-30.3V584.2z"/>
<path class="st5" d="M525.9,627.9h30.3v30.3h-30.3V627.9z"/>
<path class="st5" d="M525.9,675h30.3V685h-30.3V675z"/>
<path class="st5" d="M386.9,419.4v31.1c-8.3,1.5-16,5.2-22.4,10.8l-4.2-34.7C374.9,419.4,386.9,419.4,386.9,419.4L386.9,419.4z
	 M351.3,480.8c-3.9,9.4-5.8,19.9-6.6,29.8l-30.9-8.3c2.1-15.4,5.9-28,10.8-38.2L351.3,480.8z"/>
<path class="st2" d="M600.9,419.4v31.1c8.3,1.5,16,5.2,22.4,10.8c5.9,5.4,10.4,12.1,13.3,19.5c3.9,9.4,5.8,19.9,6.6,29.8
	c1,13.3,0.3,26.8-1.9,40h33.6c1.4-18.6,1-34.5-0.9-48.2c-2.1-15.4-5.9-28-10.8-38.2c-9.7-20.4-23.6-31.5-35.8-37.5
	C613,419.4,600.9,419.4,600.9,419.4L600.9,419.4z"/>
<path class="st5" d="M600.9,419.4v31.1c8.3,1.5,16,5.2,22.4,10.8l4.2-34.7C613,419.4,600.9,419.4,600.9,419.4L600.9,419.4z
	 M636.5,480.8c3.9,9.4,5.8,19.9,6.6,29.8l30.9-8.3c-2.1-15.4-5.9-28-10.8-38.2L636.5,480.8z"/>
<path class="st3" d="M473.7,372.3h40.3v2.8h-40.3V372.3z"/>
<path class="st3" d="M581,413.1v56.3c-2-2.2-3.1-5-3.1-8v-40.4C577.8,418.1,578.9,415.3,581,413.1z M410.4,416.8V459
	c-0.2,2.7-1.3,5.2-3.1,7.1v-56.4C409.1,411.6,410.2,414.2,410.4,416.8z"/>
<path class="st3" d="M418.3,523.7h151.3v2H418.3V523.7z"/>
<path class="st3" d="M414.9,567.4h74v1.5h-74V567.4z"/>
<path class="st3" d="M495.6,567.4h74v1.5h-74V567.4z"/>
<path class="st2" d="M423.1,165.2h11.6v99.6h-11.6V165.2z"/>
<path class="st2" d="M555.9,165.2h11.6v99.6h-11.6V165.2z"/>
<circle class="st3" cx="428.5" cy="165.9" r="13.1"/>
<circle class="st2" cx="428.5" cy="165.2" r="13.1"/>
<circle class="st3" cx="562.1" cy="165.9" r="13.1"/>
<circle class="st2" cx="562.1" cy="165.2" r="13.1"/>
<path class="st6" d="M151.5,470.2c0,0,38.4,75.4,7.1,116.6s2.8,153.6,2.8,153.6"/>
<path class="st7" d="M162.9,446.7c0,14.5-10.7,26.3-10.7,26.3s-10.7-11.8-10.7-26.3s10.7-26.3,10.7-26.3S162.9,432.2,162.9,446.7
	L162.9,446.7z"/>
<path class="st8" d="M171.4,470.2c0,0-38.4,75.4-7.1,116.6s-2.8,153.6-2.8,153.6"/>
<path class="st9" d="M160.1,446.7c0,14.5,10.7,26.3,10.7,26.3s10.7-11.8,10.7-26.3s-10.7-26.3-10.7-26.3S160.1,432.2,160.1,446.7
	L160.1,446.7z"/>
<path class="st6" d="M187.1,470.2c0,0,38.4,75.4,7.1,116.6s2.8,153.6,2.8,153.6"/>
<path class="st7" d="M198.5,446.7c0,14.5-10.7,26.3-10.7,26.3s-10.7-11.8-10.7-26.3s10.7-26.3,10.7-26.3S198.5,432.2,198.5,446.7
	L198.5,446.7z M192.5,507.1c-10.1,10.5-25.9,11.6-25.9,11.6s0.5-15.9,10.6-26.4s25.9-11.6,25.9-11.6S202.6,496.7,192.5,507.1
	L192.5,507.1z M193.5,559.1c-10.1,10.5-25.9,11.6-25.9,11.6s0.5-15.9,10.6-26.4s25.9-11.6,25.9-11.6S203.6,548.7,193.5,559.1
	L193.5,559.1z M138.8,587.8c9.5,11,9.2,26.9,9.2,26.9s-15.8-1.9-25.3-12.9s-9.2-26.9-9.2-26.9S129.3,576.8,138.8,587.8L138.8,587.8z
	 M147.7,476.9c12.1,8,16,23.4,16,23.4s-15.7,2.4-27.8-5.6s-16-23.4-16-23.4S135.6,468.8,147.7,476.9z"/>
<path class="st8" d="M207,470.2c0,0-38.4,75.4-7.1,116.6S197,740.4,197,740.4"/>
<path class="st9" d="M195.6,446.7c0,14.5,10.7,26.3,10.7,26.3s10.7-11.8,10.7-26.3s-10.7-26.3-10.7-26.3S195.6,432.2,195.6,446.7
	L195.6,446.7z M198.7,508.3c-10.2,10.4-10.9,26.2-10.9,26.2s15.9-0.9,26.1-11.3s10.9-26.2,10.9-26.2S208.9,497.9,198.7,508.3
	L198.7,508.3z M218.7,580.3c-10.2,10.3-10.9,26.2-10.9,26.2s15.9-0.9,26.1-11.3s10.9-26.2,10.9-26.2S228.9,569.9,218.7,580.3
	L218.7,580.3z"/>
<path class="st8" d="M189.3,564.4c0,0,23.1-36.4,55.6-37.2"/>
<path class="st6" d="M171.3,542.4c0,0-23.1-36.4-55.6-37.2"/>
<path class="st8" d="M168.3,594.4c0,0,23.1-36.4,55.6-37.2"/>
<circle class="st9" cx="243.8" cy="526.9" r="6"/>
<circle class="st7" cx="116.3" cy="505.4" r="6"/>
<path class="st6" d="M185.3,606.4c0,0-23.1-36.4-55.6-37.2"/>
<circle class="st7" cx="130.3" cy="569.4" r="6"/>
<circle class="st9" cx="224.3" cy="557.4" r="6"/>
<path class="st10" d="M313,696.7c0,0-55.7-11.1-70.6-26s-81.7-40.8-89.1-22.3s-100.3,81.7-37.1,92.8s148.5,14.9,167.1,7.4
	S313,696.7,313,696.7z"/>
<path class="st11" d="M116.2,734.3c63.1,11.1,148.5,14.9,167.1,7.4c14.1-5.7,24-32.8,27.9-45.5c1.2,0.2,1.9,0.4,1.9,0.4
	s-11.1,44.6-29.7,52s-104,3.7-167.1-7.4C98,738,92.8,730.5,94.7,720.9C96.3,727.1,102.6,731.9,116.2,734.3z"/>
<path class="st7" d="M914.7,483.5c0,0,13.3,17.5-6.2,43.8s-35.6,48.6-29.1,65c0,0,29.4-48.9,53.4-49.6S941,513,914.7,483.5z"/>
<path class="st3" d="M914.7,483.5c1.2,1.7,2.1,3.5,2.7,5.5c23.4,27.5,35.8,53.1,13.4,53.7c-20.9,0.6-46,38-52,47.5
	c0.2,0.7,0.4,1.4,0.7,2.2c0,0,29.4-48.9,53.4-49.6S941,513,914.7,483.5z"/>
<path class="st9" d="M939.5,505.8c0,6.1-0.7,11.1-1.5,11.1s-1.5-5-1.5-11.1s0.9-3.2,1.7-3.2S939.5,499.6,939.5,505.8L939.5,505.8z"
	/>
<path class="st9" d="M948,513.1c-5.4,2.9-10.1,4.7-10.5,4s3.6-3.7,9-6.7s3.3-0.8,3.7-0.1S953.4,510.2,948,513.1L948,513.1z"/>
<path class="st7" d="M844.2,483.5c0,0-13.3,17.5,6.2,43.8s35.6,48.6,29.1,65c0,0-29.4-48.9-53.4-49.6S817.8,513,844.2,483.5
	L844.2,483.5z"/>
<path class="st3" d="M844.2,483.5c-1.2,1.7-2.1,3.5-2.7,5.5c-23.4,27.5-35.8,53.1-13.4,53.7c20.9,0.6,46,38,52,47.5
	c-0.2,0.7-0.4,1.4-0.7,2.2c0,0-29.4-48.9-53.4-49.6S817.8,513,844.2,483.5L844.2,483.5z"/>
<path class="st9" d="M819.3,505.8c0,6.1,0.7,11.1,1.5,11.1s1.5-5,1.5-11.1s-0.9-3.2-1.7-3.2S819.3,499.6,819.3,505.8L819.3,505.8z"
	/>
<path class="st9" d="M810.8,513.1c5.4,2.9,10.1,4.7,10.5,4s-3.6-3.7-9-6.7s-3.3-0.8-3.7-0.1S805.4,510.2,810.8,513.1L810.8,513.1z"
	/>
<path class="st10" d="M823.6,590.1c0,0,37.3-1.2,48.6-9.2s57.4-17.6,60.2-4.7s56.1,63.9,14,64.2s-97.9-6.6-109.1-13.4
	S823.6,590.1,823.6,590.1L823.6,590.1z"/>
<path class="st11" d="M947,635.9c-42.1,0.3-97.9-6.6-109.1-13.4c-8.5-5.2-12-23.9-13.1-32.5c-0.8,0-1.2,0-1.2,0s2.4,30.1,13.6,36.9
	s67,13.7,109.1,13.4c12.2-0.1,16.4-4.4,16.1-10.8C960.7,633.4,956.1,635.9,947,635.9L947,635.9z"/>
</svg>
